<mxfile host="app.diagrams.net" modified="2023-06-16T14:18:04.339Z" agent="Mozilla/5.0 (X11; Linux x86_64) AppleWebKit/537.36 (KHTML, like Gecko) Chrome/114.0.0.0 Safari/537.36" etag="7ST27_n3sYJUct0A7Haq" version="21.4.0" type="device">
  <diagram id="R2lEEEUBdFMjLlhIrx00" name="Page-1">
    <mxGraphModel dx="2210" dy="807" grid="1" gridSize="10" guides="1" tooltips="1" connect="1" arrows="1" fold="1" page="1" pageScale="1" pageWidth="850" pageHeight="1100" math="0" shadow="0" extFonts="Permanent Marker^https://fonts.googleapis.com/css?family=Permanent+Marker">
      <root>
        <mxCell id="0" />
        <mxCell id="1" parent="0" />
        <mxCell id="LNiCz3PUaJKumTA4EDhK-17" style="edgeStyle=orthogonalEdgeStyle;rounded=0;orthogonalLoop=1;jettySize=auto;html=1;entryX=0.5;entryY=1;entryDx=0;entryDy=0;startArrow=none;startFill=0;endArrow=none;endFill=0;" parent="1" source="LNiCz3PUaJKumTA4EDhK-1" target="LNiCz3PUaJKumTA4EDhK-10" edge="1">
          <mxGeometry relative="1" as="geometry" />
        </mxCell>
        <mxCell id="LNiCz3PUaJKumTA4EDhK-18" style="edgeStyle=orthogonalEdgeStyle;rounded=0;orthogonalLoop=1;jettySize=auto;html=1;startArrow=none;startFill=0;endArrow=none;endFill=0;" parent="1" source="LNiCz3PUaJKumTA4EDhK-1" target="LNiCz3PUaJKumTA4EDhK-11" edge="1">
          <mxGeometry relative="1" as="geometry" />
        </mxCell>
        <mxCell id="LNiCz3PUaJKumTA4EDhK-19" style="edgeStyle=orthogonalEdgeStyle;rounded=0;orthogonalLoop=1;jettySize=auto;html=1;startArrow=none;startFill=0;endArrow=none;endFill=0;" parent="1" source="LNiCz3PUaJKumTA4EDhK-1" target="LNiCz3PUaJKumTA4EDhK-12" edge="1">
          <mxGeometry relative="1" as="geometry" />
        </mxCell>
        <mxCell id="l5Vizgiaj5KO3Ue9yY54-2" style="edgeStyle=orthogonalEdgeStyle;rounded=0;orthogonalLoop=1;jettySize=auto;html=1;entryX=1;entryY=0.5;entryDx=0;entryDy=0;startArrow=none;startFill=0;endArrow=ERmany;endFill=0;exitX=0;exitY=0.5;exitDx=0;exitDy=0;" parent="1" source="LNiCz3PUaJKumTA4EDhK-1" target="l5Vizgiaj5KO3Ue9yY54-1" edge="1">
          <mxGeometry relative="1" as="geometry">
            <Array as="points">
              <mxPoint x="400" y="260" />
              <mxPoint x="400" y="260" />
            </Array>
          </mxGeometry>
        </mxCell>
        <mxCell id="3GR3aSOvoguFwPtbk9yG-3" style="edgeStyle=orthogonalEdgeStyle;rounded=0;orthogonalLoop=1;jettySize=auto;html=1;entryX=0.5;entryY=1;entryDx=0;entryDy=0;startArrow=none;startFill=0;endArrow=none;endFill=0;strokeWidth=1;" parent="1" source="LNiCz3PUaJKumTA4EDhK-1" target="3GR3aSOvoguFwPtbk9yG-2" edge="1">
          <mxGeometry relative="1" as="geometry">
            <Array as="points">
              <mxPoint x="470" y="215" />
              <mxPoint x="310" y="215" />
            </Array>
          </mxGeometry>
        </mxCell>
        <mxCell id="LNiCz3PUaJKumTA4EDhK-1" value="translation" style="whiteSpace=wrap;html=1;align=center;" parent="1" vertex="1">
          <mxGeometry x="420" y="240" width="100" height="40" as="geometry" />
        </mxCell>
        <mxCell id="LNiCz3PUaJKumTA4EDhK-10" value="id" style="ellipse;whiteSpace=wrap;html=1;align=center;" parent="1" vertex="1">
          <mxGeometry x="360" y="150" width="60" height="40" as="geometry" />
        </mxCell>
        <mxCell id="LNiCz3PUaJKumTA4EDhK-11" value="phrase" style="ellipse;whiteSpace=wrap;html=1;align=center;" parent="1" vertex="1">
          <mxGeometry x="440" y="150" width="60" height="40" as="geometry" />
        </mxCell>
        <mxCell id="LNiCz3PUaJKumTA4EDhK-12" value="fromLang" style="ellipse;whiteSpace=wrap;html=1;align=center;" parent="1" vertex="1">
          <mxGeometry x="520" y="150" width="60" height="40" as="geometry" />
        </mxCell>
        <mxCell id="l5Vizgiaj5KO3Ue9yY54-6" style="edgeStyle=orthogonalEdgeStyle;rounded=0;orthogonalLoop=1;jettySize=auto;html=1;entryX=0.617;entryY=0.025;entryDx=0;entryDy=0;entryPerimeter=0;startArrow=none;startFill=0;endArrow=none;endFill=0;" parent="1" source="l5Vizgiaj5KO3Ue9yY54-1" target="l5Vizgiaj5KO3Ue9yY54-3" edge="1">
          <mxGeometry relative="1" as="geometry">
            <Array as="points">
              <mxPoint x="240" y="310" />
              <mxPoint x="177" y="310" />
            </Array>
          </mxGeometry>
        </mxCell>
        <mxCell id="l5Vizgiaj5KO3Ue9yY54-7" style="edgeStyle=orthogonalEdgeStyle;rounded=0;orthogonalLoop=1;jettySize=auto;html=1;startArrow=none;startFill=0;endArrow=none;endFill=0;" parent="1" source="l5Vizgiaj5KO3Ue9yY54-1" target="l5Vizgiaj5KO3Ue9yY54-4" edge="1">
          <mxGeometry relative="1" as="geometry">
            <Array as="points">
              <mxPoint x="240" y="290" />
              <mxPoint x="240" y="290" />
            </Array>
          </mxGeometry>
        </mxCell>
        <mxCell id="l5Vizgiaj5KO3Ue9yY54-8" style="edgeStyle=orthogonalEdgeStyle;rounded=0;orthogonalLoop=1;jettySize=auto;html=1;entryX=0.5;entryY=0;entryDx=0;entryDy=0;startArrow=none;startFill=0;endArrow=none;endFill=0;" parent="1" source="l5Vizgiaj5KO3Ue9yY54-1" target="l5Vizgiaj5KO3Ue9yY54-5" edge="1">
          <mxGeometry relative="1" as="geometry">
            <Array as="points">
              <mxPoint x="240" y="310" />
              <mxPoint x="310" y="310" />
            </Array>
          </mxGeometry>
        </mxCell>
        <mxCell id="l5Vizgiaj5KO3Ue9yY54-1" value="Event" style="whiteSpace=wrap;html=1;align=center;" parent="1" vertex="1">
          <mxGeometry x="190" y="240" width="100" height="40" as="geometry" />
        </mxCell>
        <mxCell id="l5Vizgiaj5KO3Ue9yY54-3" value="name" style="ellipse;whiteSpace=wrap;html=1;align=center;" parent="1" vertex="1">
          <mxGeometry x="140" y="330" width="60" height="40" as="geometry" />
        </mxCell>
        <mxCell id="l5Vizgiaj5KO3Ue9yY54-4" value="type" style="ellipse;whiteSpace=wrap;html=1;align=center;" parent="1" vertex="1">
          <mxGeometry x="210" y="330" width="60" height="40" as="geometry" />
        </mxCell>
        <mxCell id="l5Vizgiaj5KO3Ue9yY54-5" value="id" style="ellipse;whiteSpace=wrap;html=1;align=center;" parent="1" vertex="1">
          <mxGeometry x="280" y="330" width="60" height="40" as="geometry" />
        </mxCell>
        <mxCell id="l5Vizgiaj5KO3Ue9yY54-12" value="toLang" style="ellipse;whiteSpace=wrap;html=1;align=center;" parent="1" vertex="1">
          <mxGeometry x="610" y="150" width="60" height="40" as="geometry" />
        </mxCell>
        <mxCell id="l5Vizgiaj5KO3Ue9yY54-13" style="edgeStyle=orthogonalEdgeStyle;rounded=0;orthogonalLoop=1;jettySize=auto;html=1;startArrow=none;startFill=0;endArrow=none;endFill=0;entryX=0.5;entryY=1;entryDx=0;entryDy=0;exitX=0.5;exitY=0;exitDx=0;exitDy=0;" parent="1" source="LNiCz3PUaJKumTA4EDhK-1" target="l5Vizgiaj5KO3Ue9yY54-12" edge="1">
          <mxGeometry relative="1" as="geometry">
            <mxPoint x="480" y="250" as="sourcePoint" />
            <mxPoint x="560" y="200" as="targetPoint" />
            <Array as="points">
              <mxPoint x="470" y="215" />
              <mxPoint x="640" y="215" />
            </Array>
          </mxGeometry>
        </mxCell>
        <mxCell id="3GR3aSOvoguFwPtbk9yG-5" style="edgeStyle=orthogonalEdgeStyle;rounded=0;orthogonalLoop=1;jettySize=auto;html=1;entryX=0.5;entryY=1;entryDx=0;entryDy=0;entryPerimeter=0;startArrow=none;startFill=0;endArrow=none;endFill=0;strokeWidth=1;dashed=1;" parent="1" source="3GR3aSOvoguFwPtbk9yG-2" target="3GR3aSOvoguFwPtbk9yG-4" edge="1">
          <mxGeometry relative="1" as="geometry" />
        </mxCell>
        <mxCell id="3GR3aSOvoguFwPtbk9yG-2" value="likeCount" style="ellipse;whiteSpace=wrap;html=1;align=center;" parent="1" vertex="1">
          <mxGeometry x="280" y="150" width="60" height="40" as="geometry" />
        </mxCell>
        <mxCell id="3GR3aSOvoguFwPtbk9yG-4" value="&lt;p style=&quot;line-height: 1 ; font-size: 16px&quot;&gt;It will updated everytime a new like event appears&lt;/p&gt;&lt;p&gt;&lt;/p&gt;" style="shape=note;strokeWidth=2;fontSize=14;size=20;whiteSpace=wrap;html=1;fillColor=#fff2cc;strokeColor=#d6b656;fontColor=#666600;align=left;" parent="1" vertex="1">
          <mxGeometry y="40" width="320" height="45" as="geometry" />
        </mxCell>
        <mxCell id="oBWGCIkM-OMqZEEIb0pA-1" value="translation" style="ellipse;whiteSpace=wrap;html=1;align=center;" parent="1" vertex="1">
          <mxGeometry x="690" y="150" width="60" height="40" as="geometry" />
        </mxCell>
        <mxCell id="oBWGCIkM-OMqZEEIb0pA-4" style="edgeStyle=orthogonalEdgeStyle;rounded=0;orthogonalLoop=1;jettySize=auto;html=1;startArrow=none;startFill=0;endArrow=none;endFill=0;exitX=0.5;exitY=0;exitDx=0;exitDy=0;" parent="1" target="oBWGCIkM-OMqZEEIb0pA-1" edge="1">
          <mxGeometry relative="1" as="geometry">
            <mxPoint x="470" y="240" as="sourcePoint" />
            <mxPoint x="640" y="190" as="targetPoint" />
            <Array as="points">
              <mxPoint x="470" y="215" />
              <mxPoint x="720" y="215" />
            </Array>
          </mxGeometry>
        </mxCell>
        <mxCell id="sRT9VXRb5lEeJ96FUn1P-9" style="edgeStyle=orthogonalEdgeStyle;rounded=0;orthogonalLoop=1;jettySize=auto;html=1;entryX=0.5;entryY=0;entryDx=0;entryDy=0;endArrow=none;endFill=0;" edge="1" parent="1" source="sRT9VXRb5lEeJ96FUn1P-1" target="sRT9VXRb5lEeJ96FUn1P-7">
          <mxGeometry relative="1" as="geometry">
            <Array as="points">
              <mxPoint x="630" y="466" />
              <mxPoint x="700" y="466" />
            </Array>
          </mxGeometry>
        </mxCell>
        <mxCell id="sRT9VXRb5lEeJ96FUn1P-10" style="edgeStyle=orthogonalEdgeStyle;rounded=0;orthogonalLoop=1;jettySize=auto;html=1;endArrow=none;endFill=0;" edge="1" parent="1" source="sRT9VXRb5lEeJ96FUn1P-1" target="sRT9VXRb5lEeJ96FUn1P-2">
          <mxGeometry relative="1" as="geometry" />
        </mxCell>
        <mxCell id="sRT9VXRb5lEeJ96FUn1P-11" style="edgeStyle=orthogonalEdgeStyle;rounded=0;orthogonalLoop=1;jettySize=auto;html=1;exitX=0.5;exitY=1;exitDx=0;exitDy=0;entryX=0.5;entryY=0;entryDx=0;entryDy=0;endArrow=none;endFill=0;" edge="1" parent="1" source="sRT9VXRb5lEeJ96FUn1P-1" target="sRT9VXRb5lEeJ96FUn1P-3">
          <mxGeometry relative="1" as="geometry" />
        </mxCell>
        <mxCell id="sRT9VXRb5lEeJ96FUn1P-1" value="errors" style="whiteSpace=wrap;html=1;align=center;" vertex="1" parent="1">
          <mxGeometry x="580" y="400" width="100" height="40" as="geometry" />
        </mxCell>
        <mxCell id="sRT9VXRb5lEeJ96FUn1P-2" value="id" style="ellipse;whiteSpace=wrap;html=1;align=center;" vertex="1" parent="1">
          <mxGeometry x="530" y="490" width="60" height="40" as="geometry" />
        </mxCell>
        <mxCell id="sRT9VXRb5lEeJ96FUn1P-3" value="message" style="ellipse;whiteSpace=wrap;html=1;align=center;" vertex="1" parent="1">
          <mxGeometry x="600" y="490" width="60" height="40" as="geometry" />
        </mxCell>
        <mxCell id="sRT9VXRb5lEeJ96FUn1P-4" value="&lt;p style=&quot;line-height: 1 ; font-size: 16px&quot;&gt;id = md5(phrase) to improve index performance&lt;/p&gt;&lt;p&gt;&lt;/p&gt;" style="shape=note;strokeWidth=2;fontSize=14;size=20;whiteSpace=wrap;html=1;fillColor=#fff2cc;strokeColor=#d6b656;fontColor=#666600;align=left;" vertex="1" parent="1">
          <mxGeometry x="350" y="40" width="320" height="45" as="geometry" />
        </mxCell>
        <mxCell id="sRT9VXRb5lEeJ96FUn1P-5" style="edgeStyle=orthogonalEdgeStyle;rounded=0;orthogonalLoop=1;jettySize=auto;html=1;startArrow=none;startFill=0;endArrow=none;endFill=0;strokeWidth=1;dashed=1;exitX=0.5;exitY=0;exitDx=0;exitDy=0;" edge="1" parent="1" source="LNiCz3PUaJKumTA4EDhK-10" target="sRT9VXRb5lEeJ96FUn1P-4">
          <mxGeometry relative="1" as="geometry">
            <mxPoint x="320" y="160" as="sourcePoint" />
            <mxPoint x="170" y="95" as="targetPoint" />
          </mxGeometry>
        </mxCell>
        <mxCell id="sRT9VXRb5lEeJ96FUn1P-7" value="createdAt" style="ellipse;whiteSpace=wrap;html=1;align=center;" vertex="1" parent="1">
          <mxGeometry x="670" y="490" width="60" height="40" as="geometry" />
        </mxCell>
        <mxCell id="sRT9VXRb5lEeJ96FUn1P-12" style="edgeStyle=orthogonalEdgeStyle;rounded=0;orthogonalLoop=1;jettySize=auto;html=1;entryX=0.5;entryY=0;entryDx=0;entryDy=0;endArrow=none;endFill=0;" edge="1" source="sRT9VXRb5lEeJ96FUn1P-15" target="sRT9VXRb5lEeJ96FUn1P-18" parent="1">
          <mxGeometry relative="1" as="geometry">
            <Array as="points">
              <mxPoint x="-90" y="316" />
              <mxPoint x="-20" y="316" />
            </Array>
          </mxGeometry>
        </mxCell>
        <mxCell id="sRT9VXRb5lEeJ96FUn1P-13" style="edgeStyle=orthogonalEdgeStyle;rounded=0;orthogonalLoop=1;jettySize=auto;html=1;endArrow=none;endFill=0;" edge="1" source="sRT9VXRb5lEeJ96FUn1P-15" target="sRT9VXRb5lEeJ96FUn1P-16" parent="1">
          <mxGeometry relative="1" as="geometry" />
        </mxCell>
        <mxCell id="sRT9VXRb5lEeJ96FUn1P-14" style="edgeStyle=orthogonalEdgeStyle;rounded=0;orthogonalLoop=1;jettySize=auto;html=1;exitX=0.5;exitY=1;exitDx=0;exitDy=0;entryX=0.5;entryY=0;entryDx=0;entryDy=0;endArrow=none;endFill=0;" edge="1" source="sRT9VXRb5lEeJ96FUn1P-15" target="sRT9VXRb5lEeJ96FUn1P-17" parent="1">
          <mxGeometry relative="1" as="geometry" />
        </mxCell>
        <mxCell id="sRT9VXRb5lEeJ96FUn1P-15" value="apikeys" style="whiteSpace=wrap;html=1;align=center;" vertex="1" parent="1">
          <mxGeometry x="-140" y="250" width="100" height="40" as="geometry" />
        </mxCell>
        <mxCell id="sRT9VXRb5lEeJ96FUn1P-16" value="id" style="ellipse;whiteSpace=wrap;html=1;align=center;" vertex="1" parent="1">
          <mxGeometry x="-190" y="340" width="60" height="40" as="geometry" />
        </mxCell>
        <mxCell id="sRT9VXRb5lEeJ96FUn1P-17" value="apikey" style="ellipse;whiteSpace=wrap;html=1;align=center;" vertex="1" parent="1">
          <mxGeometry x="-120" y="340" width="60" height="40" as="geometry" />
        </mxCell>
        <mxCell id="sRT9VXRb5lEeJ96FUn1P-18" value="createdAt" style="ellipse;whiteSpace=wrap;html=1;align=center;" vertex="1" parent="1">
          <mxGeometry x="-50" y="340" width="60" height="40" as="geometry" />
        </mxCell>
        <mxCell id="sRT9VXRb5lEeJ96FUn1P-20" style="edgeStyle=orthogonalEdgeStyle;rounded=0;orthogonalLoop=1;jettySize=auto;html=1;entryX=0.5;entryY=0;entryDx=0;entryDy=0;endArrow=none;endFill=0;" edge="1" source="sRT9VXRb5lEeJ96FUn1P-23" target="sRT9VXRb5lEeJ96FUn1P-26" parent="1">
          <mxGeometry relative="1" as="geometry">
            <Array as="points">
              <mxPoint x="60" y="476" />
              <mxPoint x="130" y="476" />
            </Array>
          </mxGeometry>
        </mxCell>
        <mxCell id="sRT9VXRb5lEeJ96FUn1P-21" style="edgeStyle=orthogonalEdgeStyle;rounded=0;orthogonalLoop=1;jettySize=auto;html=1;endArrow=none;endFill=0;" edge="1" source="sRT9VXRb5lEeJ96FUn1P-23" target="sRT9VXRb5lEeJ96FUn1P-24" parent="1">
          <mxGeometry relative="1" as="geometry" />
        </mxCell>
        <mxCell id="sRT9VXRb5lEeJ96FUn1P-22" style="edgeStyle=orthogonalEdgeStyle;rounded=0;orthogonalLoop=1;jettySize=auto;html=1;exitX=0.5;exitY=1;exitDx=0;exitDy=0;entryX=0.5;entryY=0;entryDx=0;entryDy=0;endArrow=none;endFill=0;" edge="1" source="sRT9VXRb5lEeJ96FUn1P-23" target="sRT9VXRb5lEeJ96FUn1P-25" parent="1">
          <mxGeometry relative="1" as="geometry" />
        </mxCell>
        <mxCell id="sRT9VXRb5lEeJ96FUn1P-27" style="edgeStyle=orthogonalEdgeStyle;rounded=0;orthogonalLoop=1;jettySize=auto;html=1;endArrow=ERmany;endFill=0;" edge="1" parent="1" source="sRT9VXRb5lEeJ96FUn1P-23" target="sRT9VXRb5lEeJ96FUn1P-15">
          <mxGeometry relative="1" as="geometry">
            <Array as="points">
              <mxPoint x="60" y="260" />
            </Array>
          </mxGeometry>
        </mxCell>
        <mxCell id="sRT9VXRb5lEeJ96FUn1P-30" style="edgeStyle=orthogonalEdgeStyle;rounded=0;orthogonalLoop=1;jettySize=auto;html=1;entryX=0;entryY=0.5;entryDx=0;entryDy=0;endArrow=ERmany;endFill=0;" edge="1" parent="1" source="sRT9VXRb5lEeJ96FUn1P-23" target="l5Vizgiaj5KO3Ue9yY54-1">
          <mxGeometry relative="1" as="geometry">
            <Array as="points">
              <mxPoint x="60" y="260" />
            </Array>
          </mxGeometry>
        </mxCell>
        <mxCell id="sRT9VXRb5lEeJ96FUn1P-33" style="edgeStyle=orthogonalEdgeStyle;rounded=0;orthogonalLoop=1;jettySize=auto;html=1;entryX=0;entryY=0.5;entryDx=0;entryDy=0;endArrow=none;endFill=0;startArrow=ERmany;startFill=0;" edge="1" parent="1" source="sRT9VXRb5lEeJ96FUn1P-23" target="sRT9VXRb5lEeJ96FUn1P-32">
          <mxGeometry relative="1" as="geometry" />
        </mxCell>
        <mxCell id="sRT9VXRb5lEeJ96FUn1P-23" value="users" style="whiteSpace=wrap;html=1;align=center;" vertex="1" parent="1">
          <mxGeometry x="10" y="410" width="100" height="40" as="geometry" />
        </mxCell>
        <mxCell id="sRT9VXRb5lEeJ96FUn1P-24" value="id" style="ellipse;whiteSpace=wrap;html=1;align=center;" vertex="1" parent="1">
          <mxGeometry x="-40" y="500" width="60" height="40" as="geometry" />
        </mxCell>
        <mxCell id="sRT9VXRb5lEeJ96FUn1P-25" value="name" style="ellipse;whiteSpace=wrap;html=1;align=center;" vertex="1" parent="1">
          <mxGeometry x="30" y="500" width="60" height="40" as="geometry" />
        </mxCell>
        <mxCell id="sRT9VXRb5lEeJ96FUn1P-26" value="createdAt" style="ellipse;whiteSpace=wrap;html=1;align=center;" vertex="1" parent="1">
          <mxGeometry x="100" y="500" width="60" height="40" as="geometry" />
        </mxCell>
        <mxCell id="sRT9VXRb5lEeJ96FUn1P-34" style="edgeStyle=orthogonalEdgeStyle;rounded=0;orthogonalLoop=1;jettySize=auto;html=1;entryX=0.5;entryY=1;entryDx=0;entryDy=0;endArrow=ERmany;endFill=0;" edge="1" parent="1" source="sRT9VXRb5lEeJ96FUn1P-32" target="LNiCz3PUaJKumTA4EDhK-1">
          <mxGeometry relative="1" as="geometry" />
        </mxCell>
        <mxCell id="sRT9VXRb5lEeJ96FUn1P-36" style="edgeStyle=orthogonalEdgeStyle;rounded=0;orthogonalLoop=1;jettySize=auto;html=1;endArrow=none;endFill=0;" edge="1" parent="1" source="sRT9VXRb5lEeJ96FUn1P-32" target="sRT9VXRb5lEeJ96FUn1P-35">
          <mxGeometry relative="1" as="geometry" />
        </mxCell>
        <mxCell id="sRT9VXRb5lEeJ96FUn1P-32" value="user&lt;br&gt;translations" style="rhombus;whiteSpace=wrap;html=1;" vertex="1" parent="1">
          <mxGeometry x="420" y="390" width="100" height="80" as="geometry" />
        </mxCell>
        <mxCell id="sRT9VXRb5lEeJ96FUn1P-35" value="createdAt" style="ellipse;whiteSpace=wrap;html=1;align=center;" vertex="1" parent="1">
          <mxGeometry x="440" y="500" width="60" height="40" as="geometry" />
        </mxCell>
        <mxCell id="sRT9VXRb5lEeJ96FUn1P-37" style="edgeStyle=orthogonalEdgeStyle;rounded=0;orthogonalLoop=1;jettySize=auto;html=1;entryX=0.5;entryY=0;entryDx=0;entryDy=0;endArrow=none;endFill=0;" edge="1" source="sRT9VXRb5lEeJ96FUn1P-40" target="sRT9VXRb5lEeJ96FUn1P-43" parent="1">
          <mxGeometry relative="1" as="geometry">
            <Array as="points">
              <mxPoint x="630" y="306" />
              <mxPoint x="700" y="306" />
            </Array>
          </mxGeometry>
        </mxCell>
        <mxCell id="sRT9VXRb5lEeJ96FUn1P-38" style="edgeStyle=orthogonalEdgeStyle;rounded=0;orthogonalLoop=1;jettySize=auto;html=1;endArrow=none;endFill=0;" edge="1" source="sRT9VXRb5lEeJ96FUn1P-40" target="sRT9VXRb5lEeJ96FUn1P-41" parent="1">
          <mxGeometry relative="1" as="geometry" />
        </mxCell>
        <mxCell id="sRT9VXRb5lEeJ96FUn1P-39" style="edgeStyle=orthogonalEdgeStyle;rounded=0;orthogonalLoop=1;jettySize=auto;html=1;exitX=0.5;exitY=1;exitDx=0;exitDy=0;entryX=0.5;entryY=0;entryDx=0;entryDy=0;endArrow=none;endFill=0;" edge="1" source="sRT9VXRb5lEeJ96FUn1P-40" target="sRT9VXRb5lEeJ96FUn1P-42" parent="1">
          <mxGeometry relative="1" as="geometry" />
        </mxCell>
        <mxCell id="sRT9VXRb5lEeJ96FUn1P-40" value="languages" style="whiteSpace=wrap;html=1;align=center;" vertex="1" parent="1">
          <mxGeometry x="580" y="240" width="100" height="40" as="geometry" />
        </mxCell>
        <mxCell id="sRT9VXRb5lEeJ96FUn1P-41" value="name" style="ellipse;whiteSpace=wrap;html=1;align=center;" vertex="1" parent="1">
          <mxGeometry x="530" y="330" width="60" height="40" as="geometry" />
        </mxCell>
        <mxCell id="sRT9VXRb5lEeJ96FUn1P-42" value="shortName" style="ellipse;whiteSpace=wrap;html=1;align=center;" vertex="1" parent="1">
          <mxGeometry x="600" y="330" width="60" height="40" as="geometry" />
        </mxCell>
        <mxCell id="sRT9VXRb5lEeJ96FUn1P-43" value="createdAt" style="ellipse;whiteSpace=wrap;html=1;align=center;" vertex="1" parent="1">
          <mxGeometry x="670" y="330" width="60" height="40" as="geometry" />
        </mxCell>
        <mxCell id="sRT9VXRb5lEeJ96FUn1P-57" style="edgeStyle=orthogonalEdgeStyle;rounded=0;orthogonalLoop=1;jettySize=auto;html=1;entryX=0.5;entryY=0;entryDx=0;entryDy=0;endArrow=none;endFill=0;" edge="1" parent="1" source="sRT9VXRb5lEeJ96FUn1P-47" target="sRT9VXRb5lEeJ96FUn1P-48">
          <mxGeometry relative="1" as="geometry" />
        </mxCell>
        <mxCell id="sRT9VXRb5lEeJ96FUn1P-58" style="edgeStyle=orthogonalEdgeStyle;rounded=0;orthogonalLoop=1;jettySize=auto;html=1;entryX=0.5;entryY=0;entryDx=0;entryDy=0;endArrow=none;endFill=0;" edge="1" parent="1" source="sRT9VXRb5lEeJ96FUn1P-47" target="sRT9VXRb5lEeJ96FUn1P-49">
          <mxGeometry relative="1" as="geometry" />
        </mxCell>
        <mxCell id="sRT9VXRb5lEeJ96FUn1P-59" style="edgeStyle=orthogonalEdgeStyle;rounded=0;orthogonalLoop=1;jettySize=auto;html=1;entryX=0.5;entryY=0;entryDx=0;entryDy=0;endArrow=none;endFill=0;" edge="1" parent="1" source="sRT9VXRb5lEeJ96FUn1P-47" target="sRT9VXRb5lEeJ96FUn1P-51">
          <mxGeometry relative="1" as="geometry" />
        </mxCell>
        <mxCell id="sRT9VXRb5lEeJ96FUn1P-60" style="edgeStyle=orthogonalEdgeStyle;rounded=0;orthogonalLoop=1;jettySize=auto;html=1;entryX=0.5;entryY=0;entryDx=0;entryDy=0;endArrow=none;endFill=0;" edge="1" parent="1" source="sRT9VXRb5lEeJ96FUn1P-47" target="sRT9VXRb5lEeJ96FUn1P-52">
          <mxGeometry relative="1" as="geometry" />
        </mxCell>
        <mxCell id="sRT9VXRb5lEeJ96FUn1P-61" style="edgeStyle=orthogonalEdgeStyle;rounded=0;orthogonalLoop=1;jettySize=auto;html=1;entryX=0.5;entryY=0;entryDx=0;entryDy=0;endArrow=none;endFill=0;" edge="1" parent="1" source="sRT9VXRb5lEeJ96FUn1P-47" target="sRT9VXRb5lEeJ96FUn1P-54">
          <mxGeometry relative="1" as="geometry" />
        </mxCell>
        <mxCell id="sRT9VXRb5lEeJ96FUn1P-62" style="edgeStyle=orthogonalEdgeStyle;rounded=0;orthogonalLoop=1;jettySize=auto;html=1;entryX=0.5;entryY=0;entryDx=0;entryDy=0;endArrow=none;endFill=0;" edge="1" parent="1" source="sRT9VXRb5lEeJ96FUn1P-47" target="sRT9VXRb5lEeJ96FUn1P-55">
          <mxGeometry relative="1" as="geometry" />
        </mxCell>
        <mxCell id="sRT9VXRb5lEeJ96FUn1P-63" style="edgeStyle=orthogonalEdgeStyle;rounded=0;orthogonalLoop=1;jettySize=auto;html=1;entryX=0.5;entryY=0;entryDx=0;entryDy=0;endArrow=none;endFill=0;" edge="1" parent="1" source="sRT9VXRb5lEeJ96FUn1P-47" target="sRT9VXRb5lEeJ96FUn1P-56">
          <mxGeometry relative="1" as="geometry" />
        </mxCell>
        <mxCell id="sRT9VXRb5lEeJ96FUn1P-47" value="requests" style="whiteSpace=wrap;html=1;align=center;" vertex="1" parent="1">
          <mxGeometry x="580" y="550" width="100" height="40" as="geometry" />
        </mxCell>
        <mxCell id="sRT9VXRb5lEeJ96FUn1P-48" value="id" style="ellipse;whiteSpace=wrap;html=1;align=center;" vertex="1" parent="1">
          <mxGeometry x="255" y="630" width="60" height="40" as="geometry" />
        </mxCell>
        <mxCell id="sRT9VXRb5lEeJ96FUn1P-49" value="method" style="ellipse;whiteSpace=wrap;html=1;align=center;" vertex="1" parent="1">
          <mxGeometry x="330" y="630" width="60" height="40" as="geometry" />
        </mxCell>
        <mxCell id="sRT9VXRb5lEeJ96FUn1P-51" value="url" style="ellipse;whiteSpace=wrap;html=1;align=center;" vertex="1" parent="1">
          <mxGeometry x="400" y="630" width="60" height="40" as="geometry" />
        </mxCell>
        <mxCell id="sRT9VXRb5lEeJ96FUn1P-52" value="requestPayload&lt;br&gt;" style="ellipse;whiteSpace=wrap;html=1;align=center;" vertex="1" parent="1">
          <mxGeometry x="470" y="630" width="100" height="40" as="geometry" />
        </mxCell>
        <mxCell id="sRT9VXRb5lEeJ96FUn1P-54" value="reponsePayload" style="ellipse;whiteSpace=wrap;html=1;align=center;" vertex="1" parent="1">
          <mxGeometry x="580" y="630" width="100" height="40" as="geometry" />
        </mxCell>
        <mxCell id="sRT9VXRb5lEeJ96FUn1P-55" value="createdAt" style="ellipse;whiteSpace=wrap;html=1;align=center;" vertex="1" parent="1">
          <mxGeometry x="690" y="630" width="60" height="40" as="geometry" />
        </mxCell>
        <mxCell id="sRT9VXRb5lEeJ96FUn1P-56" value="duration" style="ellipse;whiteSpace=wrap;html=1;align=center;" vertex="1" parent="1">
          <mxGeometry x="760" y="630" width="60" height="40" as="geometry" />
        </mxCell>
        <mxCell id="sRT9VXRb5lEeJ96FUn1P-64" value="&lt;p style=&quot;line-height: 1 ; font-size: 16px&quot;&gt;Request and Response payload can contain the body and headers&lt;/p&gt;&lt;p&gt;&lt;/p&gt;" style="shape=note;strokeWidth=2;fontSize=14;size=20;whiteSpace=wrap;html=1;fillColor=#fff2cc;strokeColor=#d6b656;fontColor=#666600;align=left;" vertex="1" parent="1">
          <mxGeometry x="410" y="710" width="340" height="60" as="geometry" />
        </mxCell>
        <mxCell id="sRT9VXRb5lEeJ96FUn1P-65" style="edgeStyle=orthogonalEdgeStyle;rounded=0;orthogonalLoop=1;jettySize=auto;html=1;startArrow=none;startFill=0;endArrow=none;endFill=0;strokeWidth=1;dashed=1;exitX=0.5;exitY=0;exitDx=0;exitDy=0;entryX=0.5;entryY=1;entryDx=0;entryDy=0;exitPerimeter=0;" edge="1" parent="1" source="sRT9VXRb5lEeJ96FUn1P-64" target="sRT9VXRb5lEeJ96FUn1P-54">
          <mxGeometry relative="1" as="geometry">
            <mxPoint x="510" y="735" as="sourcePoint" />
            <mxPoint x="660" y="680" as="targetPoint" />
          </mxGeometry>
        </mxCell>
        <mxCell id="sRT9VXRb5lEeJ96FUn1P-66" style="edgeStyle=orthogonalEdgeStyle;rounded=0;orthogonalLoop=1;jettySize=auto;html=1;startArrow=none;startFill=0;endArrow=none;endFill=0;strokeWidth=1;dashed=1;exitX=0.5;exitY=0;exitDx=0;exitDy=0;entryX=0.5;entryY=1;entryDx=0;entryDy=0;exitPerimeter=0;" edge="1" parent="1" source="sRT9VXRb5lEeJ96FUn1P-64" target="sRT9VXRb5lEeJ96FUn1P-52">
          <mxGeometry relative="1" as="geometry">
            <mxPoint x="590" y="720" as="sourcePoint" />
            <mxPoint x="640" y="680" as="targetPoint" />
          </mxGeometry>
        </mxCell>
      </root>
    </mxGraphModel>
  </diagram>
</mxfile>
